# xmcd
#
# Track frame offsets:
#	150
#	11415
#	27357
#	40106
#	53763
#	64413
#	78271
#	91456
#	103553
#	121622
#	131825
#
# Disc length: 1949 seconds
#
# Revision: 1
# Processed by: cddbd v1.5.2PL0 Copyright (c) Steve Scherf et al.
# Submitted via: audiograbber 1.83.01
#
DISCID=85079b0b
DTITLE=Hayseed Dixie - A Hillbilly Tribute to AC/DC
DYEAR=1900
DGENRE=
TTITLE0=Highway To Hell
TTITLE1=You Shook Me All Night Long
TTITLE2=Dirty Deeds Done Dirt Cheap
TTITLE3=Hell's Bells
TTITLE4=Money Talks
TTITLE5=Let's Get It Up
TTITLE6=Have A Drink On Me
TTITLE7=T.N.T.
TTITLE8=Back In Black
TTITLE9=Big Balls 
TTITLE10=Touch Too Much
EXTD=
EXTT0=
EXTT1=
EXTT2=
EXTT3=
EXTT4=
EXTT5=
EXTT6=
EXTT7=
EXTT8=
EXTT9=
EXTT10=
PLAYORDER=
